PathFileType	4	(X/Y/Z)	RBDS028\RBDS028runT25.trc
DataRate	CameraRate	NumFrames	NumMarkers	Units	OrigDataRate	OrigDataStartFrame	OrigNumFrames
150.000000	150.000000	6	33	mm	150.000000	562	4500
Frame#	Time	L.ASIS			L.Heel.Bottom			L.Heel.Lateral			L.Heel.Top			L.Iliac.Crest			L.MT1			L.MT5			L.PSIS			L.Shank.Bottom.Lateral			L.Shank.Bottom.Medial			L.Shank.Top.Lateral			L.Shank.Top.Medial			L.Thigh.Bottom.Lateral			L.Thigh.Bottom.Medial			L.Thigh.Top.Lateral			L.Thigh.Top.Medial			R.ASIS			R.ASY			R.Heel.Bottom			R.Heel.Lateral			R.Heel.Top			R.Iliac.Crest			R.MT1			R.MT5			R.PSIS			R.Shank.Bottom.Lateral			R.Shank.Bottom.Medial			R.Shank.Top.Lateral			R.Shank.Top.Medial			R.Thigh.Bottom.Lateral			R.Thigh.Bottom.Medial			R.Thigh.Top.Lateral			R.Thigh.Top.Medial			
		X1	Y1	Z1	X2	Y2	Z2	X3	Y3	Z3	X4	Y4	Z4	X5	Y5	Z5	X6	Y6	Z6	X7	Y7	Z7	X8	Y8	Z8	X9	Y9	Z9	X10	Y10	Z10	X11	Y11	Z11	X12	Y12	Z12	X13	Y13	Z13	X14	Y14	Z14	X15	Y15	Z15	X16	Y16	Z16	X17	Y17	Z17	X18	Y18	Z18	X19	Y19	Z19	X20	Y20	Z20	X21	Y21	Z21	X22	Y22	Z22	X23	Y23	Z23	X24	Y24	Z24	X25	Y25	Z25	X26	Y26	Z26	X27	Y27	Z27	X28	Y28	Z28	X29	Y29	Z29	X30	Y30	Z30	X31	Y31	Z31	X32	Y32	Z32	X33	Y33	Z33	

563	3.746666666666667	2044.660679719463	873.8331665706023	903.3231381073545	1491.858600534793	283.5561365276863	1007.001956931187	1506.970412403653	261.3688842517593	958.8756731637586	1535.294790305768	290.1805505433947	996.5021755818133	1995.80831472384	935.7956314432028	880.6538857552773	1588.242258813646	85.49473241279634	1029.174455461575	1544.621996901897	112.9947736032335	928.3022381834362	1896.737968858914	910.9683169687079	980.99526758834	1620.028210053214	289.1934477508871	929.8387555873442	1599.283622318294	315.4416464844039	968.7133277451678	1670.622550065691	349.853631245348	912.0538975363677	1654.664507067556	377.7811583970579	954.4802132013782	1910.270418676227	556.409257343032	876.2716023800995	1850.171138789532	575.5732107910786	912.205684399711	1932.796733197856	662.6553972121474	859.5184345606229	1876.864258963474	680.4733110930472	897.751930088003	2050.906249004712	894.6921682455093	1135.350909087607	2309.212309330903	109.7507523675641	1087.825709590046	2138.728724990996	30.04418710417587	1068.539903414186	2168.357128486096	43.81497242771408	1113.204153116271	2141.45074475415	74.65098618258119	1078.661448639355	1992.518432893264	957.4588260227309	1162.156633946802	2348.24400607984	86.3571020663021	1029.276882614288	2322.158712793678	44.87507565587406	1132.92128970682	1900.259542911466	910.1231769775758	1074.355812055926	2177.328876905093	181.0141892071108	1140.111655036686	2140.134754183332	179.9443883318835	1098.263400097502	2152.878275817331	256.5580560185647	1157.231752227308	2118.505620724293	255.602897961717	1115.408068291745	2118.089523407406	560.1626971137109	1182.182682387418	2062.425806859806	533.3390396005834	1147.106651601451	2065.222765131624	656.3331727661813	1195.103492266877	2011.066996374549	629.7226203995931	1162.983854589711	
564	3.753333333333333	2046.666273473744	872.8630619707186	903.7442974531849	1494.450752755481	294.8543453402705	1007.372784671317	1508.456275271452	272.2805555244988	959.0462807112111	1538.237325145055	299.5862718925935	996.9649861181275	1996.001015309882	934.7124454581877	880.7975645901699	1582.055259600299	92.27221626176529	1028.190411279138	1539.632586333016	122.1717548636116	927.5124171389963	1898.266353316539	909.1900955247597	980.7756127657063	1621.990113051525	294.8253641637307	929.6076712661659	1602.344549703709	321.845742025402	968.5507847439715	1674.754331013575	353.5443390510657	911.769863657255	1659.988572801361	382.0704450084072	954.1704005397629	1918.044081269051	552.6213233606337	875.9925049104197	1857.279856474085	570.6322786568035	911.4266917032976	1938.72195564074	659.2692453155599	859.3429054620807	1882.066155607023	675.9675638904969	896.8544563120595	2050.696486578552	892.9403632172404	1136.252014953046	2307.170845113361	106.17057746275	1086.079649125758	2136.468678232433	28.22444025585365	1063.771935091083	2165.633541769142	41.28349737995849	1109.017467361979	2139.5164052317	72.66227704856783	1074.481006318138	1993.186263632542	955.7494536154539	1162.551872756041	2346.443560672757	83.01977305802691	1027.497947963308	2318.993851088137	41.02394326101938	1130.656875917213	1901.331690320975	908.2055491569698	1074.194369823379	2174.13222340454	177.2345082360529	1137.304496085456	2137.786976255521	176.4719021551621	1094.630407881058	2149.062992506473	252.5802505887464	1154.621773692131	2115.708302409647	251.9158311238931	1112.00789359232	2115.133429285143	556.8546160121565	1182.449512184954	2059.64320426877	530.8180889701941	1146.522669968905	2063.146484362226	653.5275687767315	1195.320509008889	2009.116810877404	627.6318160655187	1162.312115720834	
565	3.76	2048.720856191098	871.4027846480589	904.2473010751524	1497.876990020636	305.7758471711779	1007.858665026463	1510.908485422699	282.9980088649407	959.3179824774182	1541.918109505487	308.7687209405297	997.6284361475185	1996.189045677745	933.0388040832984	880.9476512383893	1577.161934312059	99.38052862944014	1027.187767324414	1536.08752157629	131.7238727183712	926.6584057324444	1899.780330885945	906.7600816470165	980.5497248799829	1624.864588330395	300.3803212698264	929.4710717200737	1606.388112139282	328.2124458466178	968.430321982907	1679.80575765523	356.9969301826681	911.4732971905146	1666.287617277194	386.1629053302439	953.7950759753504	1926.365890011442	548.2507928617063	875.4607432942677	1864.978568184246	564.8746892169985	910.53233480831	1944.889538520331	655.3567932341431	859.0823749067365	1887.547054902579	670.6984811059424	895.9949052230014	2050.301007001856	890.6673668394388	1137.360608543903	2302.388083587832	101.9607047456652	1083.860250447769	2130.982620371445	26.8480074037878	1058.997167085791	2159.687086484668	39.50499779125761	1104.7067461418	2134.699564963253	71.1631395336577	1069.787110870367	1993.80142423243	953.5078243094998	1162.990143943572	2341.869316345141	78.16907458016644	1025.691094809087	2312.558829275812	37.20818890444725	1128.700750441939	1902.263802192178	905.6751642536876	1074.022257348362	2169.096964368412	173.2837088319549	1134.012403197499	2133.508029581991	173.1956954829224	1090.624404295699	2144.063985462757	248.5766400599697	1151.652818760025	2111.670801505115	248.5364900553249	1108.315709742725	2112.621880876311	553.4707375466016	1182.567880359113	2057.329390289294	528.0407989687066	1145.911626847961	2061.310905925912	650.4964011116655	1195.382648718174	2007.400522540206	625.1578903755141	1161.661965151764	
566	3.766666666666667	2050.819625954281	869.4417786256881	904.847628686124	1502.224980951294	316.2809174747852	1008.444642947447	1514.398851725054	293.4632937378551	959.672964507923	1546.429466764667	317.6764950309891	998.4418263099003	1996.513976124099	930.7376801993032	881.0950717881939	1573.614086905501	106.7327473454329	1026.12613640674	1534.009786548998	141.5388359582839	925.7357351693119	1901.258766631968	903.6658429892619	980.2854480252589	1628.688261958055	305.8227477930492	929.3955308147453	1611.440462452288	334.4703125835613	968.3320194485882	1685.772878646234	360.2094441682059	911.1530756545591	1673.537324915792	390.0232830969308	953.3561278952436	1935.09891317401	543.4194397166135	874.6839841942714	1873.16782442715	558.4522472082012	909.5603186731034	1951.207979126282	651.0158222562707	858.7428722767727	1893.250186237791	664.794257856046	895.2161397821529	2049.772782002812	887.9207875071664	1138.649159472211	2295.051997494197	97.37131472790705	1081.049551600957	2122.566712259069	25.77819631331927	1054.405569040403	2150.852353423519	38.42580905359431	1100.403915647716	2127.212015523971	70.03169753500516	1064.732768700486	1994.348971806039	950.7516649118287	1163.457371906926	2334.706605028366	72.14816009689969	1023.724118403138	2303.239243497744	33.70069752504106	1126.964764625509	1903.01413301579	902.545496468699	1073.803493397775	2162.474047479624	169.2177979173427	1130.30738286494	2127.450568007203	170.143146013708	1086.416884832985	2138.140486720243	244.5857142828734	1148.436472630528	2106.545445582023	245.478855421692	1104.531566715166	2110.568926193158	550.0057564009793	1182.512241390839	2055.475803743278	525.0209720206573	1145.260031774878	2059.738576238231	647.2524970391075	1195.281865173969	2005.926411754409	622.3267651395258	1161.036092384111	
567	3.773333333333333	2052.945141922041	866.9878298912548	905.5616689686204	1507.599733251235	326.3336817385855	1009.109551862202	1519.002240471644	303.6159122215827	960.0869294850203	1551.881098179799	326.2492623831675	999.3411482159572	1997.098141936871	927.7885961307231	881.2329016984839	1571.426007157626	114.221353131357	1024.959564378944	1533.381684719652	151.489088614142	924.735487073985	1902.668171940332	899.9175605514207	979.9552956977171	1633.493118468109	311.1057536549919	929.3408201920782	1617.522200163659	340.535324256858	968.2347225501503	1692.649903724999	363.1728885096766	910.7970506502663	1681.714661299874	393.6055575240568	952.8619684044111	1944.11381584802	538.258156388584	873.6836396640961	1881.748396572237	551.5314877712973	908.5479531608662	1957.59669002186	646.3506834734168	858.3358905426996	1899.123689542635	658.3967081516111	894.5512194594261	2049.159751835762	884.764661319757	1140.082143262953	2285.413835811864	92.687466321408	1077.617509749769	2111.607098497911	24.90774265263536	1050.156497268512	2139.547197643796	37.96947344353282	1096.235307426329	2117.344899479745	69.16335700708674	1059.500195612093	1994.801590734316	947.5059993977632	1163.944933975104	2325.203552873885	65.41401691339367	1021.521245772202	2291.49091999626	30.73762759003461	1125.361578625678	1903.540645108062	898.8523081217819	1073.504497299119	2154.536480449217	165.1385341098282	1126.30417902926	2119.815283632409	167.374381226343	1082.198365127785	2131.552565258156	240.6815773375215	1145.106346913855	2100.509238939988	242.7801643605885	1100.860793586633	2108.964153551713	546.4607017434045	1182.276037766442	2054.058068908272	521.789175444339	1144.551111463022	2058.432120687654	643.8174549757721	1195.027507052964	2004.691876893349	619.1805030881443	1160.432423593445	
568	3.78	2055.066081458936	864.0683321949318	906.4034617481282	1514.104284693364	335.8997471269251	1009.818879317155	1524.786220167887	313.3915071402042	960.5247055337647	1558.38135397166	334.4205225015893	1000.250628450758	1998.029053237181	924.1933200293208	881.3557503992424	1570.581860800331	121.7253936012417	1023.643807436109	1534.159124320744	161.4358260940305	923.6433945913794	1903.964149389707	895.5530684761601	979.538034010658	1639.302698783598	316.1735467658676	929.2622612499914	1624.643726171048	346.3183016772134	968.1146448983252	1700.428337737595	365.8710245294213	910.3914077435556	1690.79646831829	396.8578300644608	952.3227662934835	1953.297982593746	532.8989107050885	872.4925356043683	1890.627246506332	544.2818016622782	907.527230051782	1963.99048248503	641.4662622595587	857.8772412051634	1905.122233828446	651.650981750502	894.019520719635	2048.495166717925	881.2775038102184	1141.617875768467	2273.778797116439	88.19191563877813	1073.63616291317	2098.550946356414	24.16532789819911	1046.370626903076	2126.240065301376	38.03822143004639	1092.317687536911	2105.4497345079	68.47863370917949	1054.291585072309	1995.115802702064	943.8024431803192	1164.447992865863	2313.664277779326	58.47870364650288	1019.079352427831	2277.806137184518	28.48287877147776	1123.823994390226	1903.805085498346	894.6549918210692	1073.09586819265	2145.559053056943	161.1805035214587	1122.156827983567	2110.841372371393	164.9720170416985	1078.164242292091	2124.537942625655	236.9646831944538	1141.809704524353	2093.752247794745	240.4941902435102	1097.495978161812	2107.775830593841	542.8486658118911	1181.871315589147	2053.038179919379	518.392745982416	1143.770949294826	2057.375459026387	640.2251505338927	1194.644157293362	2003.683575907845	615.7770892301002	1159.846587182072	
